HIERARCHY
ROOT Hips
{
	OFFSET 302.116486 91.969017 -502.769196
	CHANNELS 6 Xposition Yposition Zposition Zrotation Yrotation Xrotation 
	JOINT LeftUpLeg
	{
		OFFSET 0.103459 1.857831 10.548511
		CHANNELS 3 Zrotation Yrotation Xrotation
		JOINT LeftLeg
		{
			OFFSET 43.500000 -0.000050 0.000000
			CHANNELS 3 Zrotation Yrotation Xrotation
			JOINT LeftFoot
			{
				OFFSET 42.372196 0.000015 0.000013
				CHANNELS 3 Zrotation Yrotation Xrotation
				JOINT LeftToe
				{
					OFFSET 17.299992 -0.000003 0.000004
					CHANNELS 3 Zrotation Yrotation Xrotation
					End Site
					{
						OFFSET 0.000000 0.000000 0.000000
					}
				}
			}
		}
	}
	JOINT RightUpLeg
	{
		OFFSET 0.103458 1.857840 -10.548509
		CHANNELS 3 Zrotation Yrotation Xrotation
		JOINT RightLeg
		{
			OFFSET 43.500038 -0.000042 -0.000002
			CHANNELS 3 Zrotation Yrotation Xrotation
			JOINT RightFoot
			{
				OFFSET 42.372261 0.000004 0.000031
				CHANNELS 3 Zrotation Yrotation Xrotation
				JOINT RightToe
				{
					OFFSET 17.299984 -0.000009 0.000004
					CHANNELS 3 Zrotation Yrotation Xrotation
					End Site
					{
						OFFSET 0.000000 0.000000 0.000000
					}
				}
			}
		}
	}
	JOINT Spine
	{
		OFFSET 6.901966 -2.603730 0.000007
		CHANNELS 3 Zrotation Yrotation Xrotation
		JOINT Spine1
		{
			OFFSET 12.588103 -0.000008 0.000003
			CHANNELS 3 Zrotation Yrotation Xrotation
			JOINT Spine2
			{
				OFFSET 12.343202 0.000024 -0.000014
				CHANNELS 3 Zrotation Yrotation Xrotation
				JOINT Neck
				{
					OFFSET 25.832888 -0.000004 0.000015
					CHANNELS 3 Zrotation Yrotation Xrotation
					JOINT Head
					{
						OFFSET 11.766605 -0.000005 -0.000022
						CHANNELS 3 Zrotation Yrotation Xrotation
						End Site
						{
							OFFSET 0.000000 0.000000 0.000000
						}
					}
				}
				JOINT LeftShoulder
				{
					OFFSET 19.745907 -1.480368 6.000113
					CHANNELS 3 Zrotation Yrotation Xrotation
					JOINT LeftArm
					{
						OFFSET 11.284131 0.000002 -0.000036
						CHANNELS 3 Zrotation Yrotation Xrotation
						JOINT LeftForeArm
						{
							OFFSET 33.000053 -0.000000 0.000032
							CHANNELS 3 Zrotation Yrotation Xrotation
							JOINT LeftHand
							{
								OFFSET 25.200001 0.000002 0.000014
								CHANNELS 3 Zrotation Yrotation Xrotation
								End Site
								{
									OFFSET 0.000000 0.000000 0.000000
								}
							}
						}
					}
				}
				JOINT RightShoulder
				{
					OFFSET 19.746090 -1.480385 -6.000069
					CHANNELS 3 Zrotation Yrotation Xrotation
					JOINT RightArm
					{
						OFFSET 11.284133 -0.000013 -0.000012
						CHANNELS 3 Zrotation Yrotation Xrotation
						JOINT RightForeArm
						{
							OFFSET 33.000103 0.000006 0.000008
							CHANNELS 3 Zrotation Yrotation Xrotation
							JOINT RightHand
							{
								OFFSET 25.199774 0.000153 0.000412
								CHANNELS 3 Zrotation Yrotation Xrotation
								End Site
								{
									OFFSET 0.000000 0.000000 0.000000
								}
							}
						}
					}
				}
			}
		}
	}
}
MOTION
Frames: 7
Frame Time: 0.033333
275.215210 81.898033 -177.463196 87.559938 -4.146812 -89.520025 159.187449 0.187996 168.818917 -60.096587 -1.915986 2.628942 95.849998 -0.901841 7.769502 21.454550 0.003100 0.000000 150.944175 3.623502 -175.188260 -102.734699 -5.253329 13.489490 77.521179 -8.577021 2.853978 21.454562 -0.003112 -0.000020 10.718004 -1.794020 -0.295839 11.440560 -3.549933 -0.768183 11.121826 -3.554368 -0.746703 -0.403824 -7.415880 -8.726475 -23.462854 16.866478 -17.674494 173.993619 -75.476500 4.655802 -16.203591 49.380745 12.727565 -93.240531 -3.614153 2.701751 1.268558 3.541254 41.627776 -171.221409 72.544880 10.411794 12.885306 -54.004632 -43.638103 -52.597777 15.844702 -1.923042 4.493606 9.656119 -20.194197 
274.000885 82.283737 -186.769897 87.375721 -4.682586 -89.864990 167.395779 1.966290 168.863723 -57.782745 -1.558544 1.697868 96.723955 -0.415436 7.146050 21.454553 0.003097 0.000001 143.124947 6.263906 -174.099951 -96.102503 -4.666123 13.416735 77.568109 -8.552352 2.964491 21.454560 -0.003109 -0.000012 10.331446 -1.353310 -0.720436 10.670869 -2.634379 -1.563063 10.352525 -2.643632 -1.547103 0.292164 -7.380211 -9.468149 -23.409895 16.129574 -18.063219 173.336418 -76.329413 5.303799 -21.043907 53.283723 9.404854 -96.083399 -2.939851 2.781067 -0.421230 2.049476 36.790971 -168.732310 72.447284 12.969593 17.530208 -51.345879 -47.088246 -50.631769 15.612648 -1.841814 3.468275 10.463427 -21.756765 
272.671112 82.964272 -196.331299 87.503725 -4.994168 -90.703990 175.213326 3.627395 169.081114 -54.618434 -1.244573 0.678098 91.333392 0.473355 6.303620 21.454543 0.003094 -0.000000 138.449191 8.431586 -173.106309 -83.934330 -2.359638 12.167653 77.013094 -7.858957 2.590961 21.454558 -0.003097 -0.000022 9.811673 -0.705150 -0.953914 9.622539 -1.328595 -1.963251 9.304564 -1.340268 -1.955207 1.983629 -8.794588 -11.918654 -23.687832 15.198733 -20.376524 175.122198 -76.472198 3.477597 -24.734593 56.369640 7.428064 -99.088580 -2.400451 2.876958 -1.823895 0.893993 34.958325 -165.414901 72.296931 16.379810 21.478360 -47.855642 -49.938935 -50.624150 15.235143 -1.816396 3.822596 12.004444 -16.538012 
271.241302 83.464401 -205.916107 87.631798 -4.950175 -92.420048 -178.700780 4.593400 167.693097 -52.969521 -1.051203 0.725284 81.220266 0.616265 4.640231 21.454553 0.003097 -0.000004 136.730962 9.994607 -169.930339 -67.176871 -0.081501 10.160335 75.605427 -6.178301 3.806307 21.454563 -0.003109 -0.000018 9.230009 -0.005255 -0.953324 8.446686 0.058971 -1.904446 8.128767 0.047606 -1.904766 4.598184 -12.360314 -16.272261 -22.841785 15.453230 -25.148309 178.906642 -76.447302 -0.384505 -26.087436 58.828904 6.839304 -102.555202 -1.949333 2.998987 -2.205789 1.154374 36.299939 -162.558420 72.664928 19.311808 24.364086 -44.589920 -51.840982 -51.521148 14.782968 -1.815870 4.314788 14.200025 -11.792531 
269.814392 83.429176 -215.704407 86.760246 -5.030769 -94.123053 -174.935789 5.892699 166.069602 -55.725946 -0.265631 2.235085 73.199943 -2.636557 -3.352633 21.454553 0.003092 -0.000003 138.220093 11.281196 -161.226533 -47.710770 -1.134670 6.502235 75.067945 -2.798234 6.474281 21.454557 -0.003108 -0.000017 8.748136 0.494761 -0.881668 7.475848 1.045239 -1.729636 7.157849 1.034916 -1.735916 7.670088 -17.328707 -22.048532 -21.195969 18.290780 -32.165888 -177.222850 -76.294893 -4.334285 -23.718330 59.987366 9.048051 -106.573696 -1.476210 3.142502 -2.467195 0.900581 39.048748 -160.499774 73.359893 21.416415 27.026884 -42.107730 -51.699310 -53.761577 14.942716 -1.902402 2.934366 14.490222 -14.943950 
268.521210 83.077164 -225.368698 85.252509 -6.024347 -95.041987 -174.012033 7.550097 167.715391 -62.625909 -0.535543 2.240536 65.329660 -5.928681 -11.012642 21.454545 0.003095 -0.000006 142.521869 11.440188 -155.684914 -29.085708 -0.505841 5.227843 73.152105 -1.161372 8.701765 21.454560 -0.003107 -0.000016 8.634446 0.708086 -0.854523 7.245971 1.468076 -1.663271 6.927899 1.458140 -1.672077 10.842194 -20.147762 -28.029213 -20.796608 21.341261 -39.184375 -173.474989 -76.409914 -8.163306 -17.400576 59.868541 13.527815 -110.799001 -0.917022 3.286572 -3.368663 0.032871 41.191949 -160.130807 73.843921 21.787904 27.905267 -40.614771 -50.067045 -56.548598 14.942022 -2.000398 1.122956 15.343344 -18.049077 
267.381714 81.971039 -234.539703 84.191056 -8.044657 -95.587036 -176.747838 8.196709 169.272551 -74.319589 -0.906480 3.309826 66.665201 -5.525018 -8.258523 21.454555 0.003101 -0.000005 146.074606 11.249695 -156.463610 -21.390457 0.054609 9.166459 74.454615 -4.340929 7.965109 21.454558 -0.003107 -0.000016 9.021991 0.795783 -0.691952 8.022466 1.637494 -1.327261 7.704315 1.629578 -1.337117 13.043056 -20.399437 -33.514109 -22.010804 24.400847 -45.975383 -172.209751 -76.854211 -9.457694 -7.794468 59.128012 19.204470 -112.897296 -0.607889 3.354693 -4.533960 -2.094154 38.540131 -161.556595 73.570215 20.329626 25.008154 -39.723885 -47.096333 -58.574842 14.870847 -2.069267 0.697976 17.230185 -17.624864 
